<svg id="svg" version="1.1" xmlns="http://www.w3.org/2000/svg" xmlns:xlink="http://www.w3.org/1999/xlink" width="400" height="352.27272727272725" viewBox="0, 0, 400,352.27272727272725"><g id="svgg"><path id="path0" d="M159.285 80.242 C 158.136 81.027,147.692 90.305,139.734 97.611 C 130.680 105.922,128.270 108.012,126.872 108.764 C 125.702 109.393,124.320 109.433,99.863 109.532 C 74.363 109.636,74.081 109.645,73.431 110.362 C 72.391 111.512,72.406 261.368,73.447 262.518 L 74.118 263.260 116.090 263.272 C 165.256 263.287,163.281 263.190,169.304 265.894 C 173.597 267.822,175.860 268.622,180.793 269.957 C 183.853 270.785,196.790 271.862,200.176 271.571 C 213.960 270.385,216.956 269.733,225.022 266.164 C 226.960 265.306,229.260 264.346,230.132 264.029 C 231.561 263.511,236.158 263.443,276.524 263.341 C 321.239 263.228,321.331 263.226,321.986 262.502 C 323.016 261.364,323.015 111.498,321.985 110.360 C 321.334 109.641,321.073 109.633,295.730 109.530 L 270.132 109.427 268.546 108.644 C 267.674 108.213,263.551 104.747,259.383 100.943 C 252.650 94.795,242.075 85.255,238.085 81.729 C 237.297 81.032,236.306 80.278,235.882 80.055 C 234.470 79.308,160.388 79.490,159.285 80.242 M232.336 88.915 C 233.148 89.270,246.982 101.525,251.366 105.773 C 252.790 107.153,253.057 108.290,252.070 108.773 C 251.373 109.114,148.129 109.404,145.326 109.072 C 141.122 108.575,141.309 108.168,148.868 101.374 C 152.213 98.367,156.523 94.451,158.445 92.672 C 160.366 90.892,162.414 89.223,162.996 88.961 C 164.462 88.302,230.833 88.257,232.336 88.915 M89.365 96.060 C 88.216 97.209,88.191 100.677,89.324 101.811 C 90.148 102.635,114.864 102.870,116.775 102.072 C 118.629 101.297,119.006 97.911,117.437 96.123 C 116.652 95.229,90.255 95.170,89.365 96.060 M312.873 118.963 L 313.656 119.511 313.656 186.432 L 313.656 253.352 312.873 253.901 C 311.912 254.574,247.215 254.752,245.968 254.085 C 244.876 253.500,245.154 252.721,247.340 250.251 C 253.438 243.357,261.457 230.726,261.506 227.937 C 261.510 227.690,261.838 226.775,262.235 225.903 C 262.633 225.031,263.512 221.859,264.190 218.855 C 269.017 197.459,263.729 176.293,249.215 158.913 C 243.977 152.641,240.249 149.620,231.189 144.309 C 229.930 143.570,228.322 142.606,227.618 142.166 C 219.273 136.953,205.362 134.586,190.308 135.819 C 177.397 136.877,171.123 139.358,155.976 149.397 C 141.155 159.221,129.386 182.213,129.353 201.410 C 129.320 220.546,134.569 234.705,147.132 249.368 C 149.780 252.460,150.150 253.233,149.357 254.026 C 148.635 254.749,83.581 254.626,82.545 253.901 L 81.762 253.352 81.762 186.588 C 81.762 120.294,81.767 119.819,82.467 119.119 C 83.444 118.141,311.480 117.987,312.873 118.963 M277.442 128.104 C 275.662 128.877,275.595 129.420,275.595 142.905 L 275.595 155.367 276.523 156.098 C 277.986 157.248,302.956 157.238,303.998 156.087 C 305.490 154.439,305.132 129.946,303.594 128.407 L 302.763 127.577 290.677 127.591 C 281.052 127.602,278.356 127.706,277.442 128.104 M295.048 137.444 C 296.161 138.819,295.972 145.646,294.788 146.830 C 293.628 147.990,286.362 148.013,285.210 146.860 C 283.717 145.366,284.293 137.279,285.916 136.933 C 286.345 136.842,287.013 136.690,287.401 136.596 C 289.426 136.104,294.410 136.657,295.048 137.444 M204.774 144.689 C 209.359 145.271,212.702 145.885,214.218 146.425 C 215.508 146.885,217.461 147.518,218.558 147.832 C 221.411 148.647,229.083 152.888,233.219 155.936 C 246.008 165.361,254.835 180.908,256.616 197.144 C 257.206 202.516,256.809 211.986,255.848 215.507 C 255.425 217.057,254.856 219.228,254.585 220.331 C 251.910 231.218,242.734 244.225,232.662 251.407 C 229.048 253.984,220.840 258.500,218.798 259.035 C 217.957 259.255,215.921 259.888,214.273 260.440 C 205.306 263.449,189.643 263.457,180.809 260.458 C 179.152 259.895,177.113 259.256,176.276 259.037 C 175.440 258.818,173.002 257.682,170.859 256.512 C 153.059 246.798,144.146 234.843,139.104 213.921 C 138.431 211.127,138.564 193.326,139.276 191.013 C 139.604 189.947,140.201 187.885,140.602 186.432 C 147.286 162.217,168.605 146.182,197.253 143.823 C 197.486 143.804,200.871 144.194,204.774 144.689 M189.047 154.175 C 144.325 163.221,132.808 219.144,170.302 245.192 C 185.680 255.875,210.803 255.787,225.198 245.000 C 230.723 240.860,235.416 236.233,238.491 231.894 C 251.089 214.122,250.206 189.351,236.362 172.159 C 224.894 157.918,206.015 150.742,189.047 154.175 M202.939 163.183 C 207.543 163.655,210.404 164.593,217.023 167.798 C 225.992 172.142,233.806 181.986,236.778 192.685 C 239.772 203.465,238.790 212.826,233.676 222.256 C 230.276 228.526,223.956 235.471,219.218 238.142 C 218.340 238.637,217.066 239.390,216.388 239.817 C 208.910 244.513,192.410 245.467,183.039 241.744 C 164.992 234.575,152.954 212.490,157.699 195.257 C 159.335 189.316,159.917 187.725,161.534 184.761 C 165.542 177.415,172.076 170.824,178.326 167.821 C 188.008 163.169,193.224 162.186,202.939 163.183 M99.142 163.862 C 97.608 164.515,97.621 164.199,97.621 199.112 L 97.621 232.631 98.521 233.531 C 99.713 234.723,105.406 234.702,106.284 233.501 C 107.034 232.475,107.034 165.410,106.284 164.385 C 105.719 163.612,100.609 163.238,99.142 163.862 M191.542 175.680 C 180.883 178.583,172.548 186.664,170.227 196.347 C 168.937 201.728,169.563 203.329,173.068 203.609 C 176.651 203.896,177.441 203.163,178.861 198.229 C 180.872 191.244,186.839 185.568,193.304 184.492 C 197.339 183.821,197.709 183.375,197.709 179.184 C 197.709 175.173,196.315 174.381,191.542 175.680 " stroke="none" fill="#fbf5f3" fill-rule="evenodd"></path><path id="path1" d="M0.000 176.211 L 0.000 352.423 200.000 352.423 L 400.000 352.423 400.000 176.211 L 400.000 0.000 200.000 0.000 L 0.000 0.000 0.000 176.211 M235.882 80.055 C 236.306 80.278,237.297 81.032,238.085 81.729 C 242.075 85.255,252.650 94.795,259.383 100.943 C 263.551 104.747,267.674 108.213,268.546 108.644 L 270.132 109.427 295.730 109.530 C 321.073 109.633,321.334 109.641,321.985 110.360 C 323.015 111.498,323.016 261.364,321.986 262.502 C 321.331 263.226,321.239 263.228,276.524 263.341 C 236.158 263.443,231.561 263.511,230.132 264.029 C 229.260 264.346,226.960 265.306,225.022 266.164 C 216.956 269.733,213.960 270.385,200.176 271.571 C 191.150 272.347,178.494 270.020,169.304 265.894 C 163.281 263.190,165.256 263.287,116.090 263.272 L 74.118 263.260 73.447 262.518 C 72.406 261.368,72.391 111.512,73.431 110.362 C 74.081 109.645,74.363 109.636,99.863 109.532 C 124.320 109.433,125.702 109.393,126.872 108.764 C 128.270 108.012,130.680 105.922,139.734 97.611 C 147.692 90.305,158.136 81.027,159.285 80.242 C 160.388 79.490,234.470 79.308,235.882 80.055 M162.996 88.961 C 162.414 89.223,160.366 90.892,158.445 92.672 C 156.523 94.451,152.213 98.367,148.868 101.374 C 141.309 108.168,141.122 108.575,145.326 109.072 C 148.129 109.404,251.373 109.114,252.070 108.773 C 253.057 108.290,252.790 107.153,251.366 105.773 C 246.982 101.525,233.148 89.270,232.336 88.915 C 230.833 88.257,164.462 88.302,162.996 88.961 M117.437 96.123 C 119.006 97.911,118.629 101.297,116.775 102.072 C 114.864 102.870,90.148 102.635,89.324 101.811 C 88.191 100.677,88.216 97.209,89.365 96.060 C 90.255 95.170,116.652 95.229,117.437 96.123 M82.467 119.119 C 81.767 119.819,81.762 120.294,81.762 186.588 L 81.762 253.352 82.545 253.901 C 83.581 254.626,148.635 254.749,149.357 254.026 C 150.150 253.233,149.780 252.460,147.132 249.368 C 134.569 234.705,129.320 220.546,129.353 201.410 C 129.386 182.213,141.155 159.221,155.976 149.397 C 171.123 139.358,177.397 136.877,190.308 135.819 C 205.362 134.586,219.273 136.953,227.618 142.166 C 228.322 142.606,229.930 143.570,231.189 144.309 C 240.249 149.620,243.977 152.641,249.215 158.913 C 263.729 176.293,269.017 197.459,264.190 218.855 C 263.512 221.859,262.633 225.031,262.235 225.903 C 261.838 226.775,261.510 227.690,261.506 227.937 C 261.457 230.726,253.438 243.357,247.340 250.251 C 245.154 252.721,244.876 253.500,245.968 254.085 C 247.215 254.752,311.912 254.574,312.873 253.901 L 313.656 253.352 313.656 186.432 L 313.656 119.511 312.873 118.963 C 311.480 117.987,83.444 118.141,82.467 119.119 M303.594 128.407 C 305.132 129.946,305.490 154.439,303.998 156.087 C 302.956 157.238,277.986 157.248,276.523 156.098 L 275.595 155.367 275.595 142.905 C 275.595 125.899,273.909 127.610,290.677 127.591 L 302.763 127.577 303.594 128.407 M287.401 136.596 C 287.013 136.690,286.345 136.842,285.916 136.933 C 284.293 137.279,283.717 145.366,285.210 146.860 C 286.362 148.013,293.628 147.990,294.788 146.830 C 295.972 145.646,296.161 138.819,295.048 137.444 C 294.410 136.657,289.426 136.104,287.401 136.596 M190.368 144.683 C 166.663 147.710,146.658 164.492,140.602 186.432 C 140.201 187.885,139.604 189.947,139.276 191.013 C 138.564 193.326,138.431 211.127,139.104 213.921 C 144.146 234.843,153.059 246.798,170.859 256.512 C 173.002 257.682,175.440 258.818,176.276 259.037 C 177.113 259.256,179.152 259.895,180.809 260.458 C 189.643 263.457,205.306 263.449,214.273 260.440 C 215.921 259.888,217.957 259.255,218.798 259.035 C 220.840 258.500,229.048 253.984,232.662 251.407 C 242.734 244.225,251.910 231.218,254.585 220.331 C 254.856 219.228,255.425 217.057,255.848 215.507 C 256.809 211.986,257.206 202.516,256.616 197.144 C 254.835 180.908,246.008 165.361,233.219 155.936 C 229.083 152.888,221.411 148.647,218.558 147.832 C 217.461 147.518,215.508 146.885,214.218 146.425 C 212.240 145.721,198.956 143.683,197.253 143.823 C 197.019 143.843,193.921 144.230,190.368 144.683 M206.168 154.193 C 216.968 156.372,226.050 161.137,232.802 168.167 C 253.640 189.865,252.148 222.312,229.427 241.541 C 219.507 249.937,210.846 253.040,197.333 253.040 C 170.678 253.040,150.040 233.514,147.974 206.344 C 145.575 174.796,175.476 148.000,206.168 154.193 M191.934 163.206 C 177.885 164.688,162.760 177.366,158.930 190.871 C 158.496 192.403,157.942 194.377,157.699 195.257 C 152.954 212.490,164.992 234.575,183.039 241.744 C 192.410 245.467,208.910 244.513,216.388 239.817 C 217.066 239.390,218.340 238.637,219.218 238.142 C 229.001 232.627,237.504 218.589,238.387 206.496 C 239.511 191.111,230.150 174.156,217.023 167.798 C 207.491 163.182,201.887 162.157,191.934 163.206 M106.284 164.385 C 107.034 165.410,107.034 232.475,106.284 233.501 C 105.406 234.702,99.713 234.723,98.521 233.531 L 97.621 232.631 97.621 199.112 C 97.621 164.199,97.608 164.515,99.142 163.862 C 100.609 163.238,105.719 163.612,106.284 164.385 M197.004 175.859 C 197.583 176.437,197.709 177.034,197.709 179.184 C 197.709 183.375,197.339 183.821,193.304 184.492 C 186.839 185.568,180.872 191.244,178.861 198.229 C 177.441 203.163,176.651 203.896,173.068 203.609 C 168.651 203.255,168.463 198.183,172.573 190.225 C 177.141 181.380,193.126 171.981,197.004 175.859 " stroke="none" fill="#ec6c34" fill-rule="evenodd"></path></g></svg>